<?xml version="1.0" encoding="UTF-8"?>
<!DOCTYPE svg PUBLIC "-//W3C//DTD SVG 1.1//EN" "http://www.w3.org/Graphics/SVG/1.1/DTD/svg11.dtd">
<!-- Creator: CorelDRAW 2020 (64-Bit) -->
<svg xmlns="http://www.w3.org/2000/svg" xml:space="preserve" width="200mm" height="200mm" version="1.1" shape-rendering="geometricPrecision" text-rendering="geometricPrecision" image-rendering="optimizeQuality" fill-rule="evenodd" clip-rule="evenodd"
viewBox="0 0 20000 20000"
 xmlns:xlink="http://www.w3.org/1999/xlink"
 xmlns:xodm="http://www.corel.com/coreldraw/odm/2003">
 <g id="Capa_x0020_1">
  <metadata id="CorelCorpID_0Corel-Layer"/>
  <g id="_1658734130304">
   <g>
    <path fill="white" d="M16940.56 16402.72c-118.73,752.53 -447.06,1451.13 -1011.9,1971.22 -865.88,797.27 -2048.27,967.09 -3171.53,747.08 -447.02,-87.55 -881.97,-197.86 -1320.16,-320.96 -306.17,-86.02 -615.69,-179.19 -928.23,-238.67 -912.08,-173.57 -1828.64,50.96 -2705.63,300.37 -931.01,264.77 -1904.51,495.37 -2866.2,239.11 -512.04,-136.45 -968.01,-402.85 -1336.58,-783.66 -985.14,-1017.92 -1142.07,-2596.97 -660.34,-3886.07 247.7,-662.79 858.51,-1574.62 1384.64,-2046.02 445.8,-399.4 878.54,-824.54 1252.89,-1292.63 246.08,-307.72 451.69,-625.63 666.43,-954.44 258.27,-395.49 517.25,-748.71 840.16,-1095.87 634.14,-681.79 1132.34,-1193.22 2104.09,-1359.93 1545.14,-265.08 2724.35,405.24 3631.59,1607.96 229.24,303.89 419.82,626.45 631.54,941.34 202.54,301.25 387.54,614.92 604.37,906.33 340.56,457.69 740.31,827.51 1145.67,1223.75 407.61,398.43 769.34,792.53 1072.75,1278.92 489.68,785.05 812.62,1835.88 666.44,2762.17zm-5090.14 -15097.78c575.88,-400.72 1272.53,-604.92 1969.04,-450.38 779.93,173.05 1356.21,742.03 1704.58,1440.53 432.16,866.48 439.73,1918.99 198.62,2841.26 -372.94,1426.44 -1471.16,2917.7 -3085.4,2894.99 -478.41,-6.72 -928.55,-146 -1315.64,-429.62 -1221.52,-895 -1358.35,-2792.38 -960.06,-4134.59 254.18,-856.61 748.38,-1646.96 1488.86,-2162.19zm-5709.48 -402.64c1731.55,-329.29 2991.44,1380.96 3309.15,2884.95 279.7,1324.08 -57.52,3117.29 -1313.08,3851.19 -229.11,133.92 -478.52,223.3 -740.62,265.04 -475.11,75.7 -946.78,12.3 -1383.31,-190.28 -1037.41,-481.4 -1721.21,-1670.64 -1937.6,-2758.72 -253.1,-1272.69 1.34,-2841.65 1119.2,-3646.56 283.33,-204.03 603.35,-340.4 946.26,-405.62zm12718.11 4993.92c1231.32,784.24 1369.25,2469.5 843.76,3718.08 -347.45,825.56 -939.36,1552.25 -1753.68,1950.15 -676.63,330.61 -1483.24,404.4 -2176.65,78.54 -929.52,-436.8 -1310.68,-1393.17 -1308.17,-2373.03 2.77,-1081.38 470.68,-2114.46 1271.45,-2838.91 681.22,-616.28 1654.68,-1027.88 2576.27,-776.61 193.67,52.81 377.69,133.94 547.02,241.78zm-18548.09 3885.02c-503.27,-1260.82 -513.17,-3003.16 731.49,-3843.78 696.94,-470.71 1563.42,-468.83 2309.12,-111.16 1109.81,532.3 1782.43,1627.37 1936.36,2826.87 130.28,1015.45 -122.73,2247.07 -1009.86,2867.98 -564.36,395.01 -1239.86,428.24 -1885.61,235 -924.6,-276.71 -1727.59,-1088.25 -2081.5,-1974.91z"/>
   </g>
   <g>
    <path fill="black" d="M16494.61 16332.35c142.47,-902.88 -241.47,-1872.39 -603.55,-2452.85 -639.37,-1025 -1471.05,-1495.73 -2197.56,-2472.1 -228.18,-306.66 -408.71,-614.38 -616.84,-923.94 -216.1,-321.42 -379.49,-606.12 -617.3,-921.37 -750.24,-994.59 -1735.92,-1685.15 -3194.81,-1434.87 -916.42,157.22 -1393.42,731.7 -1849.86,1222.44 -1031.3,1108.8 -922.48,1699.6 -2788.79,3371.72 -448.22,401.58 -1033.39,1253.39 -1263,1867.8 -639.9,1712.35 49.31,3638.18 1690.24,4075.44 875.8,233.36 1806.9,-4.04 2626.48,-237.12 2759.39,-784.75 2930.98,-186.95 5164.28,250.46 1972.23,386.28 3381.76,-641.1 3650.71,-2345.61z"/>
    <path fill="black" d="M12108.28 1675.52c-2185.86,1521 -1958.2,5869.31 535.33,5904.39 2101.17,29.58 3420.56,-3190.28 2476.42,-5083.33 -634.55,-1272.28 -1883.18,-1606.32 -3011.75,-821.06z"/>
    <path fill="black" d="M6225.29 1345.82c-1375.17,261.51 -2036.39,1864.42 -1707.01,3520.59 257.28,1293.68 1281.75,2834.24 2807.08,2591.23 1365.12,-217.47 2013.81,-2011.06 1683,-3577.08 -262.17,-1241.1 -1307.22,-2815.42 -2783.07,-2534.74z"/>
    <path fill="black" d="M18616.52 6277.02c-1377.43,-877.28 -3694.9,710.46 -3700.74,2994.1 -7.08,2766.23 3238.63,2858.42 4370.91,168.05 438.58,-1042.09 370.1,-2499.6 -670.17,-3162.15z"/>
    <path fill="black" d="M730.26 9613.88c295.71,740.88 984.38,1468.16 1791.64,1709.74 2748.85,822.64 3240.91,-3840.08 634.43,-5090.25 -611.15,-293.15 -1305.14,-297.31 -1861.19,78.22 -1053.01,711.21 -985.95,2247.4 -564.88,3302.29z"/>
   </g>
  </g>
 </g>
</svg>
